<svg width="15" height="17" viewBox="0 0 15 17" fill="none" xmlns="http://www.w3.org/2000/svg">
<path d="M7.45314 4.97298C7.48209 4.95858 7.49631 4.95829 7.5 4.95829C7.50369 4.95829 7.5179 4.95858 7.54686 4.97298C7.57797 4.98845 7.6265 5.02071 7.68822 5.08462C7.81547 5.2164 7.96157 5.4442 8.09821 5.7858C8.23292 6.12257 8.34521 6.53686 8.42321 7.00761C8.46925 7.28551 8.50229 7.57672 8.52158 7.87496H6.47842C6.49771 7.57672 6.53075 7.28551 6.57679 7.00761C6.65479 6.53686 6.76708 6.12257 6.90179 5.7858C7.03843 5.4442 7.18453 5.2164 7.31178 5.08462C7.3735 5.02071 7.42203 4.98845 7.45314 4.97298Z" fill="#354150" fill-opacity="0.5"/>
<path d="M5.22611 7.87496C5.24702 7.5091 5.2863 7.14913 5.34361 6.80328C5.42408 6.31756 5.5399 5.86088 5.68949 5.45604C5.43727 5.60606 5.2041 5.78718 4.99566 5.99562C4.66679 6.3245 4.40591 6.71493 4.22793 7.14462C4.13033 7.38024 4.05871 7.62513 4.01392 7.87496H5.22611Z" fill="#354150" fill-opacity="0.5"/>
<path d="M4.01392 9.12496H5.22611C5.24702 9.49082 5.2863 9.85078 5.34361 10.1966C5.42408 10.6824 5.5399 11.139 5.68949 11.5439C5.43727 11.3939 5.2041 11.2127 4.99566 11.0043C4.66679 10.6754 4.40591 10.285 4.22793 9.8553C4.13033 9.61968 4.05871 9.37479 4.01392 9.12496Z" fill="#354150" fill-opacity="0.5"/>
<path d="M10.9861 7.87496C10.9413 7.62513 10.8697 7.38024 10.7721 7.14462C10.5941 6.71493 10.3332 6.3245 10.0043 5.99562C9.7959 5.78718 9.56273 5.60606 9.31051 5.45604C9.4601 5.86088 9.57592 6.31756 9.65639 6.80329C9.71369 7.14913 9.75298 7.5091 9.77389 7.87496H10.9861Z" fill="#354150" fill-opacity="0.5"/>
<path d="M9.77389 9.12496H10.9861C10.9413 9.37479 10.8697 9.61968 10.7721 9.8553C10.5941 10.285 10.3332 10.6754 10.0043 11.0043C9.7959 11.2127 9.56273 11.3939 9.31051 11.5439C9.4601 11.139 9.57592 10.6824 9.65639 10.1966C9.71369 9.85078 9.75298 9.49082 9.77389 9.12496Z" fill="#354150" fill-opacity="0.5"/>
<path d="M8.52158 9.12496C8.50229 9.42319 8.46925 9.71441 8.4232 9.99231C8.34521 10.4631 8.23292 10.8773 8.09821 11.2141C7.96157 11.5557 7.81547 11.7835 7.68822 11.9153C7.6265 11.9792 7.57797 12.0115 7.54686 12.0269C7.5179 12.0413 7.50369 12.0416 7.5 12.0416C7.49631 12.0416 7.48209 12.0413 7.45314 12.0269C7.42203 12.0115 7.3735 11.9792 7.31178 11.9153C7.18453 11.7835 7.03843 11.5557 6.90179 11.2141C6.76708 10.8773 6.65479 10.4631 6.57679 9.99231C6.53075 9.71441 6.49771 9.42319 6.47842 9.12496H8.52158Z" fill="#354150" fill-opacity="0.5"/>
<path fill-rule="evenodd" clip-rule="evenodd" d="M0.314596 2.7353C0 3.18352 0 4.51585 0 7.18051V8.49276C0 13.1912 3.53247 15.4712 5.7488 16.4394C6.35001 16.702 6.65062 16.8333 7.5 16.8333C8.34938 16.8333 8.64999 16.702 9.2512 16.4394C11.4675 15.4712 15 13.1912 15 8.49276V7.18051C15 4.51585 15 3.18352 14.6854 2.7353C14.3708 2.28708 13.1181 1.85826 10.6126 1.00062L10.1352 0.837224C8.82918 0.390159 8.17616 0.166626 7.5 0.166626C6.82384 0.166626 6.17082 0.390158 4.86477 0.837223L4.38743 1.00062C1.88194 1.85826 0.629193 2.28708 0.314596 2.7353ZM2.70833 8.49996C2.70833 7.87071 2.83227 7.24762 3.07308 6.66627C3.31388 6.08492 3.66683 5.55669 4.11178 5.11174C4.55673 4.66679 5.08496 4.31384 5.66631 4.07304C6.24766 3.83223 6.87075 3.70829 7.5 3.70829C8.12925 3.70829 8.75234 3.83223 9.33369 4.07304C9.91504 4.31384 10.4433 4.66679 10.8882 5.11174C11.3332 5.55669 11.6861 6.08492 11.9269 6.66627C12.1677 7.24762 12.2917 7.87071 12.2917 8.49996C12.2917 9.12921 12.1677 9.7523 11.9269 10.3337C11.6861 10.915 11.3332 11.4432 10.8882 11.8882C10.4433 12.3331 9.91504 12.6861 9.33369 12.9269C8.75234 13.1677 8.12925 13.2916 7.5 13.2916C6.87075 13.2916 6.24766 13.1677 5.66631 12.9269C5.08496 12.6861 4.55673 12.3331 4.11178 11.8882C3.66683 11.4432 3.31388 10.915 3.07308 10.3337C2.83227 9.7523 2.70833 9.12921 2.70833 8.49996Z" fill="#354150" fill-opacity="0.5"/>
</svg>
