<svg width="14" height="14" viewBox="0 0 14 14" fill="none" xmlns="http://www.w3.org/2000/svg">
<path fill-rule="evenodd" clip-rule="evenodd" d="M1.30968 12.6904C2.286 13.6667 3.85734 13.6667 7.00004 13.6667C10.1427 13.6667 11.7141 13.6667 12.6904 12.6904C13.6667 11.7141 13.6667 10.1427 13.6667 7.00004C13.6667 3.85734 13.6667 2.286 12.6904 1.30968C11.7141 0.333374 10.1427 0.333374 7.00004 0.333374C3.85734 0.333374 2.286 0.333374 1.30968 1.30968C0.333374 2.286 0.333374 3.85734 0.333374 7.00004C0.333374 10.1427 0.333374 11.7141 1.30968 12.6904ZM11.5 9.66671C11.5 9.94285 11.2762 10.1667 11 10.1667H3.00004C2.7239 10.1667 2.50004 9.94285 2.50004 9.66671C2.50004 9.39056 2.7239 9.16671 3.00004 9.16671H11C11.2762 9.16671 11.5 9.39056 11.5 9.66671ZM11 7.50004C11.2762 7.50004 11.5 7.27618 11.5 7.00004C11.5 6.7239 11.2762 6.50004 11 6.50004H3.00004C2.7239 6.50004 2.50004 6.7239 2.50004 7.00004C2.50004 7.27618 2.7239 7.50004 3.00004 7.50004H11ZM11.5 4.33337C11.5 4.60952 11.2762 4.83337 11 4.83337H3.00004C2.7239 4.83337 2.50004 4.60952 2.50004 4.33337C2.50004 4.05723 2.7239 3.83337 3.00004 3.83337H11C11.2762 3.83337 11.5 4.05723 11.5 4.33337Z" fill="#979797" fill-opacity="0.5"/>
</svg>
