<svg width="14" height="14" viewBox="0 0 14 14" fill="none" xmlns="http://www.w3.org/2000/svg">
<path d="M9.66663 2.89748C11.5522 2.89748 12.4951 2.89748 13.0808 3.49828C13.6666 4.09909 13.6666 5.06607 13.6666 7.00004C13.6666 8.93401 13.6666 9.90099 13.0808 10.5018C12.4951 11.1026 11.5522 11.1026 9.66663 11.1026L4.33329 11.1026C2.44767 11.1026 1.50487 11.1026 0.919079 10.5018C0.333293 9.90099 0.333293 8.93401 0.333294 7.00004C0.333294 5.06607 0.333293 4.09909 0.91908 3.49828C1.50487 2.89748 2.44767 2.89748 4.33329 2.89748L9.66663 2.89748Z" fill="#979797" fill-opacity="0.5"/>
<path fill-rule="evenodd" clip-rule="evenodd" d="M12.5 0.846194C12.5 1.12942 12.2761 1.35901 12 1.35901L1.99996 1.35901C1.72382 1.35901 1.49996 1.12942 1.49996 0.846194C1.49996 0.562971 1.72382 0.333374 1.99996 0.333374L12 0.333374C12.2761 0.333374 12.5 0.562972 12.5 0.846194ZM12.5 13.1539C12.5 13.4371 12.2761 13.6667 12 13.6667L1.99996 13.6667C1.72382 13.6667 1.49996 13.4371 1.49996 13.1539C1.49996 12.8707 1.72382 12.6411 1.99996 12.6411L12 12.6411C12.2761 12.6411 12.5 12.8707 12.5 13.1539Z" fill="#979797" fill-opacity="0.5"/>
</svg>
