<svg width="12" height="14" viewBox="0 0 12 14" fill="none" xmlns="http://www.w3.org/2000/svg">
<path fill-rule="evenodd" clip-rule="evenodd" d="M0.781049 1.11442C0 1.89547 0 3.15255 0 5.66671V8.33337C0 10.8475 0 12.1046 0.781049 12.8857C1.5621 13.6667 2.81918 13.6667 5.33333 13.6667H6.66667C9.18082 13.6667 10.4379 13.6667 11.219 12.8857C12 12.1046 12 10.8475 12 8.33337V5.66671C12 3.15255 12 1.89547 11.219 1.11442C10.4379 0.333374 9.18082 0.333374 6.66667 0.333374H5.33333C2.81918 0.333374 1.5621 0.333374 0.781049 1.11442ZM3.33333 5.16671C3.05719 5.16671 2.83333 5.39056 2.83333 5.66671C2.83333 5.94285 3.05719 6.16671 3.33333 6.16671H8.66667C8.94281 6.16671 9.16667 5.94285 9.16667 5.66671C9.16667 5.39056 8.94281 5.16671 8.66667 5.16671H3.33333ZM3.33333 7.83337C3.05719 7.83337 2.83333 8.05723 2.83333 8.33337C2.83333 8.60952 3.05719 8.83337 3.33333 8.83337H6.66667C6.94281 8.83337 7.16667 8.60952 7.16667 8.33337C7.16667 8.05723 6.94281 7.83337 6.66667 7.83337H3.33333Z" fill="#979797" fill-opacity="0.5"/>
</svg>
