<svg width="14" height="12" viewBox="0 0 14 12" fill="none" xmlns="http://www.w3.org/2000/svg">
<path fill-rule="evenodd" clip-rule="evenodd" d="M0.333374 2.66667C0.333374 1.40959 0.333374 0.781049 0.723898 0.390524C1.11442 0 1.74296 0 3.00004 0H11C12.2571 0 12.8857 0 13.2762 0.390524C13.6667 0.781049 13.6667 1.40959 13.6667 2.66667C13.6667 3.92375 13.6667 4.55228 13.2762 4.94281C12.8857 5.33333 12.2571 5.33333 11 5.33333H3.00004C1.74296 5.33333 1.11442 5.33333 0.723898 4.94281C0.333374 4.55228 0.333374 3.92375 0.333374 2.66667ZM3.00004 2.16667C2.7239 2.16667 2.50004 2.39052 2.50004 2.66667C2.50004 2.94281 2.7239 3.16667 3.00004 3.16667H4.33337C4.60952 3.16667 4.83337 2.94281 4.83337 2.66667C4.83337 2.39052 4.60952 2.16667 4.33337 2.16667H3.00004ZM5.83337 2.66667C5.83337 2.39052 6.05723 2.16667 6.33337 2.16667H11C11.2762 2.16667 11.5 2.39052 11.5 2.66667C11.5 2.94281 11.2762 3.16667 11 3.16667H6.33337C6.05723 3.16667 5.83337 2.94281 5.83337 2.66667Z" fill="#979797" fill-opacity="0.5"/>
<path fill-rule="evenodd" clip-rule="evenodd" d="M0.333374 9.33333C0.333374 8.07625 0.333374 7.44772 0.723898 7.05719C1.11442 6.66667 1.74296 6.66667 3.00004 6.66667H11C12.2571 6.66667 12.8857 6.66667 13.2762 7.05719C13.6667 7.44772 13.6667 8.07625 13.6667 9.33333C13.6667 10.5904 13.6667 11.219 13.2762 11.6095C12.8857 12 12.2571 12 11 12H3.00004C1.74296 12 1.11442 12 0.723898 11.6095C0.333374 11.219 0.333374 10.5904 0.333374 9.33333ZM3.00004 8.83333C2.7239 8.83333 2.50004 9.05719 2.50004 9.33333C2.50004 9.60948 2.7239 9.83333 3.00004 9.83333H4.33337C4.60952 9.83333 4.83337 9.60948 4.83337 9.33333C4.83337 9.05719 4.60952 8.83333 4.33337 8.83333H3.00004ZM5.83337 9.33333C5.83337 9.05719 6.05723 8.83333 6.33337 8.83333H11C11.2762 8.83333 11.5 9.05719 11.5 9.33333C11.5 9.60948 11.2762 9.83333 11 9.83333H6.33337C6.05723 9.83333 5.83337 9.60948 5.83337 9.33333Z" fill="#979797" fill-opacity="0.5"/>
</svg>
