<svg width="17" height="17" viewBox="0 0 17 17" fill="none" xmlns="http://www.w3.org/2000/svg">
<path fill-rule="evenodd" clip-rule="evenodd" d="M8.5013 16.8333C4.57293 16.8333 2.60875 16.8333 1.38836 15.6129C0.167969 14.3925 0.167969 12.4283 0.167969 8.49996C0.167969 4.57159 0.167969 2.6074 1.38836 1.38701C2.60875 0.166626 4.57293 0.166626 8.5013 0.166626C12.4297 0.166626 14.3939 0.166626 15.6142 1.38701C16.8346 2.6074 16.8346 4.57159 16.8346 8.49996C16.8346 12.4283 16.8346 14.3925 15.6142 15.6129C14.3939 16.8333 12.4297 16.8333 8.5013 16.8333ZM8.5013 4.95829C7.98353 4.95829 7.5638 5.37803 7.5638 5.89579C7.5638 6.24097 7.28398 6.52079 6.9388 6.52079C6.59362 6.52079 6.3138 6.24097 6.3138 5.89579C6.3138 4.68767 7.29318 3.70829 8.5013 3.70829C9.70942 3.70829 10.6888 4.68767 10.6888 5.89579C10.6888 6.48816 10.4525 7.02661 10.0704 7.41993C9.99355 7.49907 9.92021 7.57235 9.85024 7.64226C9.67038 7.82197 9.5128 7.9794 9.37455 8.15704C9.19203 8.39156 9.1263 8.56393 9.1263 8.70829V9.33329C9.1263 9.67847 8.84648 9.95829 8.5013 9.95829C8.15612 9.95829 7.8763 9.67847 7.8763 9.33329V8.70829C7.8763 8.1623 8.13048 7.72032 8.38811 7.3893C8.57873 7.14437 8.81833 6.90524 9.01278 6.71118C9.07144 6.65264 9.12599 6.5982 9.17384 6.54894C9.33845 6.37949 9.4388 6.15 9.4388 5.89579C9.4388 5.37803 9.01907 4.95829 8.5013 4.95829ZM8.5013 12.6666C8.96154 12.6666 9.33463 12.2935 9.33463 11.8333C9.33463 11.3731 8.96154 11 8.5013 11C8.04106 11 7.66797 11.3731 7.66797 11.8333C7.66797 12.2935 8.04106 12.6666 8.5013 12.6666Z" fill="#FAF603"/>
</svg>
