<svg width="14" height="14" viewBox="0 0 14 14" fill="none" xmlns="http://www.w3.org/2000/svg">
<path fill-rule="evenodd" clip-rule="evenodd" d="M0.379607 2.33888C0.333374 2.58393 0.333374 2.8781 0.333374 3.46646V8.16663C0.333374 10.6808 0.333374 11.9379 1.11442 12.7189C1.89547 13.5 3.15255 13.5 5.66671 13.5H8.33337C10.8475 13.5 12.1046 13.5 12.8857 12.7189C13.6667 11.9379 13.6667 10.6808 13.6667 8.16663V6.69856C13.6667 4.94365 13.6667 4.06619 13.1537 3.49585C13.1065 3.44338 13.0566 3.39345 13.0042 3.34627C12.4338 2.83329 11.5563 2.83329 9.80144 2.83329H9.55233C8.7832 2.83329 8.39864 2.83329 8.04028 2.73114C7.84341 2.67503 7.65367 2.59643 7.47478 2.49691C7.14915 2.31574 6.87723 2.04381 6.33337 1.49996L5.96654 1.13312C5.78426 0.950843 5.69312 0.859702 5.59734 0.780303C5.18439 0.437983 4.67781 0.22815 4.14375 0.178209C4.01988 0.166626 3.89099 0.166626 3.63321 0.166626C3.04485 0.166626 2.75067 0.166626 2.50563 0.212859C1.42691 0.416386 0.583134 1.26017 0.379607 2.33888ZM7.00004 6.33329C7.27618 6.33329 7.50004 6.55715 7.50004 6.83329V7.66663H8.33337C8.60952 7.66663 8.83337 7.89048 8.83337 8.16663C8.83337 8.44277 8.60952 8.66663 8.33337 8.66663H7.50004V9.49996C7.50004 9.7761 7.27618 9.99996 7.00004 9.99996C6.7239 9.99996 6.50004 9.7761 6.50004 9.49996V8.66663H5.66671C5.39056 8.66663 5.16671 8.44277 5.16671 8.16663C5.16671 7.89048 5.39056 7.66663 5.66671 7.66663H6.50004V6.83329C6.50004 6.55715 6.7239 6.33329 7.00004 6.33329Z" fill="#979797" fill-opacity="0.5"/>
</svg>
