<svg width="13" height="14" viewBox="0 0 13 14" fill="none" xmlns="http://www.w3.org/2000/svg">
<path fill-rule="evenodd" clip-rule="evenodd" d="M1.65605 1.11438C0.875 1.89543 0.875 3.1525 0.875 5.66666V8.33333C0.875 10.8475 0.875 12.1046 1.65605 12.8856C2.4371 13.6667 3.69418 13.6667 6.20833 13.6667H7.54167C10.0558 13.6667 11.3129 13.6667 12.094 12.8856C12.875 12.1046 12.875 10.8475 12.875 8.33333V5.66666C12.875 3.1525 12.875 1.89543 12.094 1.11438C11.3129 0.333328 10.0558 0.333328 7.54167 0.333328H6.20833C3.69418 0.333328 2.4371 0.333328 1.65605 1.11438ZM3.70833 4.33333C3.70833 4.05719 3.93219 3.83333 4.20833 3.83333H9.54167C9.81781 3.83333 10.0417 4.05719 10.0417 4.33333C10.0417 4.60947 9.81781 4.83333 9.54167 4.83333H4.20833C3.93219 4.83333 3.70833 4.60947 3.70833 4.33333ZM3.70833 6.99999C3.70833 6.72385 3.93219 6.49999 4.20833 6.49999H9.54167C9.81781 6.49999 10.0417 6.72385 10.0417 6.99999C10.0417 7.27614 9.81781 7.49999 9.54167 7.49999H4.20833C3.93219 7.49999 3.70833 7.27614 3.70833 6.99999ZM4.20833 9.16666C3.93219 9.16666 3.70833 9.39052 3.70833 9.66666C3.70833 9.9428 3.93219 10.1667 4.20833 10.1667H7.54167C7.81781 10.1667 8.04167 9.9428 8.04167 9.66666C8.04167 9.39052 7.81781 9.16666 7.54167 9.16666H4.20833Z" fill="#354150"/>
</svg>
