<svg width="21" height="20" viewBox="0 0 21 20" fill="none" xmlns="http://www.w3.org/2000/svg">
<path d="M9.20833 3.33333C8.65605 3.33333 8.20833 3.78104 8.20833 4.33333V4.99999C8.20833 5.55228 8.65605 5.99999 9.20833 5.99999H12.5417C13.094 5.99999 13.5417 5.55228 13.5417 4.99999V4.33333C13.5417 3.78104 13.094 3.33333 12.5417 3.33333H9.20833Z" fill="#354150"/>
<path fill-rule="evenodd" clip-rule="evenodd" d="M7.20833 4.69107C6.36973 4.73812 5.84032 4.87175 5.46079 5.25129C4.875 5.83708 4.875 6.77988 4.875 8.6655V12.6655C4.875 14.5511 4.875 15.4939 5.46079 16.0797C6.04657 16.6655 6.98938 16.6655 8.875 16.6655H12.875C14.7606 16.6655 15.7034 16.6655 16.2892 16.0797C16.875 15.4939 16.875 14.5511 16.875 12.6655V8.6655C16.875 6.77988 16.875 5.83708 16.2892 5.25129C15.9097 4.87175 15.3803 4.73812 14.5417 4.69107V5C14.5417 6.10456 13.6462 6.99999 12.5417 6.99999H9.20833C8.10376 6.99999 7.20833 6.10456 7.20833 5V4.69107ZM7.54167 8.5C7.26552 8.5 7.04167 8.72385 7.04167 9C7.04167 9.27614 7.26552 9.5 7.54167 9.5H7.875C8.15114 9.5 8.375 9.27614 8.375 9C8.375 8.72385 8.15114 8.5 7.875 8.5H7.54167ZM9.875 8.5C9.59886 8.5 9.375 8.72385 9.375 9C9.375 9.27614 9.59886 9.5 9.875 9.5H14.2083C14.4845 9.5 14.7083 9.27614 14.7083 9C14.7083 8.72385 14.4845 8.5 14.2083 8.5H9.875ZM7.54167 10.8333C7.26552 10.8333 7.04167 11.0572 7.04167 11.3333C7.04167 11.6095 7.26552 11.8333 7.54167 11.8333H7.875C8.15114 11.8333 8.375 11.6095 8.375 11.3333C8.375 11.0572 8.15114 10.8333 7.875 10.8333H7.54167ZM9.875 10.8333C9.59886 10.8333 9.375 11.0572 9.375 11.3333C9.375 11.6095 9.59886 11.8333 9.875 11.8333H14.2083C14.4845 11.8333 14.7083 11.6095 14.7083 11.3333C14.7083 11.0572 14.4845 10.8333 14.2083 10.8333H9.875ZM7.54167 13.1667C7.26552 13.1667 7.04167 13.3905 7.04167 13.6667C7.04167 13.9428 7.26552 14.1667 7.54167 14.1667H7.875C8.15114 14.1667 8.375 13.9428 8.375 13.6667C8.375 13.3905 8.15114 13.1667 7.875 13.1667H7.54167ZM9.875 13.1667C9.59886 13.1667 9.375 13.3905 9.375 13.6667C9.375 13.9428 9.59886 14.1667 9.875 14.1667H14.2083C14.4845 14.1667 14.7083 13.9428 14.7083 13.6667C14.7083 13.3905 14.4845 13.1667 14.2083 13.1667H9.875Z" fill="#354150"/>
</svg>
