<svg width="21" height="20" viewBox="0 0 21 20" fill="none" xmlns="http://www.w3.org/2000/svg">
<path fill-rule="evenodd" clip-rule="evenodd" d="M5.65605 4.11438C4.875 4.89543 4.875 6.1525 4.875 8.66666V11.3333C4.875 13.8475 4.875 15.1046 5.65605 15.8856C6.4371 16.6667 7.69418 16.6667 10.2083 16.6667H11.5417C14.0558 16.6667 15.3129 16.6667 16.094 15.8856C16.875 15.1046 16.875 13.8475 16.875 11.3333V8.66666C16.875 6.1525 16.875 4.89543 16.094 4.11438C15.3129 3.33333 14.0558 3.33333 11.5417 3.33333H10.2083C7.69418 3.33333 6.4371 3.33333 5.65605 4.11438ZM7.70833 7.33333C7.70833 7.05719 7.93219 6.83333 8.20833 6.83333H13.5417C13.8178 6.83333 14.0417 7.05719 14.0417 7.33333C14.0417 7.60947 13.8178 7.83333 13.5417 7.83333H8.20833C7.93219 7.83333 7.70833 7.60947 7.70833 7.33333ZM7.70833 9.99999C7.70833 9.72385 7.93219 9.49999 8.20833 9.49999H13.5417C13.8178 9.49999 14.0417 9.72385 14.0417 9.99999C14.0417 10.2761 13.8178 10.5 13.5417 10.5H8.20833C7.93219 10.5 7.70833 10.2761 7.70833 9.99999ZM8.20833 12.1667C7.93219 12.1667 7.70833 12.3905 7.70833 12.6667C7.70833 12.9428 7.93219 13.1667 8.20833 13.1667H11.5417C11.8178 13.1667 12.0417 12.9428 12.0417 12.6667C12.0417 12.3905 11.8178 12.1667 11.5417 12.1667H8.20833Z" fill="#354150"/>
</svg>
