<svg width="13" height="14" viewBox="0 0 13 14" fill="none" xmlns="http://www.w3.org/2000/svg">
<path d="M5.20833 0.333328C4.65605 0.333328 4.20833 0.781044 4.20833 1.33333V1.99999C4.20833 2.55228 4.65605 2.99999 5.20833 2.99999H8.54167C9.09395 2.99999 9.54167 2.55228 9.54167 1.99999V1.33333C9.54167 0.781044 9.09395 0.333328 8.54167 0.333328H5.20833Z" fill="#354150"/>
<path fill-rule="evenodd" clip-rule="evenodd" d="M3.20833 1.69107C2.36973 1.73812 1.84032 1.87175 1.46079 2.25129C0.875 2.83708 0.875 3.77988 0.875 5.6655V9.6655C0.875 11.5511 0.875 12.4939 1.46079 13.0797C2.04657 13.6655 2.98938 13.6655 4.875 13.6655H8.875C10.7606 13.6655 11.7034 13.6655 12.2892 13.0797C12.875 12.4939 12.875 11.5511 12.875 9.6655V5.6655C12.875 3.77988 12.875 2.83708 12.2892 2.25129C11.9097 1.87175 11.3803 1.73812 10.5417 1.69107V2C10.5417 3.10456 9.64624 3.99999 8.54167 3.99999H5.20833C4.10376 3.99999 3.20833 3.10456 3.20833 2V1.69107ZM3.54167 5.5C3.26552 5.5 3.04167 5.72385 3.04167 6C3.04167 6.27614 3.26552 6.5 3.54167 6.5H3.875C4.15114 6.5 4.375 6.27614 4.375 6C4.375 5.72385 4.15114 5.5 3.875 5.5H3.54167ZM5.875 5.5C5.59886 5.5 5.375 5.72385 5.375 6C5.375 6.27614 5.59886 6.5 5.875 6.5H10.2083C10.4845 6.5 10.7083 6.27614 10.7083 6C10.7083 5.72385 10.4845 5.5 10.2083 5.5H5.875ZM3.54167 7.83333C3.26552 7.83333 3.04167 8.05719 3.04167 8.33333C3.04167 8.60947 3.26552 8.83333 3.54167 8.83333H3.875C4.15114 8.83333 4.375 8.60947 4.375 8.33333C4.375 8.05719 4.15114 7.83333 3.875 7.83333H3.54167ZM5.875 7.83333C5.59886 7.83333 5.375 8.05719 5.375 8.33333C5.375 8.60947 5.59886 8.83333 5.875 8.83333H10.2083C10.4845 8.83333 10.7083 8.60947 10.7083 8.33333C10.7083 8.05719 10.4845 7.83333 10.2083 7.83333H5.875ZM3.54167 10.1667C3.26552 10.1667 3.04167 10.3905 3.04167 10.6667C3.04167 10.9428 3.26552 11.1667 3.54167 11.1667H3.875C4.15114 11.1667 4.375 10.9428 4.375 10.6667C4.375 10.3905 4.15114 10.1667 3.875 10.1667H3.54167ZM5.875 10.1667C5.59886 10.1667 5.375 10.3905 5.375 10.6667C5.375 10.9428 5.59886 11.1667 5.875 11.1667H10.2083C10.4845 11.1667 10.7083 10.9428 10.7083 10.6667C10.7083 10.3905 10.4845 10.1667 10.2083 10.1667H5.875Z" fill="#354150"/>
</svg>
