<svg width="30" height="31" viewBox="0 0 30 31" fill="none" xmlns="http://www.w3.org/2000/svg">
<path d="M19.5189 20.0013C19.6939 19.8648 19.8526 19.7061 20.1701 19.3886L24.1275 15.4312C24.2231 15.3356 24.1793 15.1708 24.0515 15.1264C23.5844 14.9644 22.9767 14.6601 22.4083 14.0917C21.8399 13.5233 21.5356 12.9156 21.3736 12.4485C21.3292 12.3207 21.1644 12.2769 21.0688 12.3725L17.1114 16.3299C16.7939 16.6474 16.6352 16.8061 16.4987 16.9811C16.3377 17.1876 16.1996 17.4109 16.087 17.6473C15.9915 17.8476 15.9205 18.0606 15.7786 18.4865L15.5951 19.0368L15.3034 19.9118L15.0299 20.7323C14.9601 20.9419 15.0146 21.1729 15.1708 21.3292C15.3271 21.4854 15.5581 21.5399 15.7677 21.4701L16.5882 21.1966L17.4632 20.9049L18.0135 20.7214L18.0136 20.7214C18.4394 20.5795 18.6524 20.5085 18.8527 20.413C19.0891 20.3004 19.3124 20.1623 19.5189 20.0013Z" fill="#979797"/>
<path d="M25.3665 14.1922C26.2112 13.3475 26.2112 11.9781 25.3665 11.1335C24.5219 10.2888 23.1525 10.2888 22.3078 11.1335L22.1806 11.2607C22.0578 11.3835 22.0022 11.555 22.0329 11.7259C22.0522 11.8334 22.0879 11.9905 22.153 12.1781C22.2831 12.5531 22.5288 13.0455 22.9917 13.5083C23.4545 13.9712 23.9469 14.2169 24.3219 14.347C24.5095 14.4121 24.6666 14.4478 24.7741 14.4671C24.945 14.4978 25.1165 14.4422 25.2393 14.3194L25.3665 14.1922Z" fill="#979797"/>
<path fill-rule="evenodd" clip-rule="evenodd" d="M7.17157 6.67157C6 7.84315 6 9.72876 6 13.5V17.5C6 21.2712 6 23.1569 7.17157 24.3284C8.34315 25.5 10.2288 25.5 14 25.5H16C19.7712 25.5 21.6569 25.5 22.8284 24.3284C23.9812 23.1756 23.9997 21.3316 24 17.6801L21.1817 20.4984C20.9119 20.7683 20.691 20.9894 20.4415 21.1841C20.1491 21.4121 19.8328 21.6076 19.4981 21.7671C19.2124 21.9032 18.9159 22.002 18.5538 22.1225L16.2421 22.8931C15.4935 23.1426 14.6682 22.9478 14.1102 22.3898C13.5523 21.8318 13.3574 21.0065 13.607 20.2579L13.8805 19.4375L14.3556 18.0121L14.3775 17.9463C14.4981 17.5842 14.5968 17.2876 14.7329 17.0019C14.8924 16.6672 15.0879 16.3509 15.316 16.0586C15.5106 15.809 15.7317 15.5881 16.0017 15.3183L20.0081 11.3119L21.12 10.2L21.2472 10.0728C21.9626 9.35741 22.9003 8.99981 23.838 9C23.6867 7.96945 23.3941 7.23727 22.8284 6.67157C21.6569 5.5 19.7712 5.5 16 5.5H14C10.2288 5.5 8.34315 5.5 7.17157 6.67157ZM10.25 12.5C10.25 12.0858 10.5858 11.75 11 11.75H17.5C17.9142 11.75 18.25 12.0858 18.25 12.5C18.25 12.9142 17.9142 13.25 17.5 13.25H11C10.5858 13.25 10.25 12.9142 10.25 12.5ZM10.25 16.5C10.25 16.0858 10.5858 15.75 11 15.75H13.5C13.9142 15.75 14.25 16.0858 14.25 16.5C14.25 16.9142 13.9142 17.25 13.5 17.25H11C10.5858 17.25 10.25 16.9142 10.25 16.5ZM10.25 20.5C10.25 20.0858 10.5858 19.75 11 19.75H12.5C12.9142 19.75 13.25 20.0858 13.25 20.5C13.25 20.9142 12.9142 21.25 12.5 21.25H11C10.5858 21.25 10.25 20.9142 10.25 20.5Z" fill="#979797"/>
</svg>
