<svg width="18" height="21" viewBox="0 0 18 21" fill="none" xmlns="http://www.w3.org/2000/svg">
<path fill-rule="evenodd" clip-rule="evenodd" d="M1.17157 1.67157C0 2.84315 0 4.72876 0 8.5V12.5C0 16.2712 0 18.1569 1.17157 19.3284C2.34315 20.5 4.22876 20.5 8 20.5H10C13.7712 20.5 15.6569 20.5 16.8284 19.3284C17.9812 18.1756 17.9997 16.3316 18 12.6801L15.1817 15.4984C14.9119 15.7683 14.691 15.9894 14.4415 16.1841C14.1491 16.4121 13.8328 16.6076 13.4981 16.7671C13.2124 16.9032 12.9159 17.002 12.5538 17.1225L10.2421 17.8931C9.49352 18.1426 8.66819 17.9478 8.11023 17.3898C7.55226 16.8318 7.35743 16.0065 7.60696 15.2579L7.88046 14.4375L8.35557 13.0121L8.37749 12.9463C8.49805 12.5842 8.59679 12.2876 8.73294 12.0019C8.89245 11.6672 9.08794 11.3509 9.31597 11.0586C9.5106 10.809 9.73172 10.5881 10.0017 10.3183L14.0081 6.31188L15.12 5.20004L15.2472 5.07282C15.9626 4.35741 16.9003 3.99981 17.838 4C17.6867 2.96945 17.3941 2.23727 16.8284 1.67157C15.6569 0.5 13.7712 0.5 10 0.5H8C4.22876 0.5 2.34315 0.5 1.17157 1.67157ZM4.25 7.5C4.25 7.08579 4.58579 6.75 5 6.75H11.5C11.9142 6.75 12.25 7.08579 12.25 7.5C12.25 7.91421 11.9142 8.25 11.5 8.25H5C4.58579 8.25 4.25 7.91421 4.25 7.5ZM4.25 11.5C4.25 11.0858 4.58579 10.75 5 10.75H7.5C7.91421 10.75 8.25 11.0858 8.25 11.5C8.25 11.9142 7.91421 12.25 7.5 12.25H5C4.58579 12.25 4.25 11.9142 4.25 11.5ZM4.25 15.5C4.25 15.0858 4.58579 14.75 5 14.75H6.5C6.91421 14.75 7.25 15.0858 7.25 15.5C7.25 15.9142 6.91421 16.25 6.5 16.25H5C4.58579 16.25 4.25 15.9142 4.25 15.5Z" fill="#979797"/>
</svg>
