<svg width="19" height="19" viewBox="0 0 19 19" fill="none" xmlns="http://www.w3.org/2000/svg">
<path d="M14.9321 18.0499L10.2553 13.3731L8.82717 14.8013C7.36509 16.2634 6.63404 16.9944 5.84831 16.8219C5.06258 16.6493 4.70517 15.6792 3.99035 13.739L1.60634 7.26805C0.180348 3.39751 -0.532647 1.46224 0.464795 0.464795C1.46224 -0.532647 3.39751 0.180348 7.26806 1.60634L13.739 3.99035C15.6792 4.70517 16.6493 5.06258 16.8219 5.84831C16.9944 6.63404 16.2634 7.36509 14.8013 8.82717L13.3731 10.2553L18.0499 14.9321C18.5341 15.4163 18.7762 15.6584 18.8881 15.9285C19.0373 16.2887 19.0373 16.6933 18.8881 17.0534C18.7762 17.3235 18.5341 17.5656 18.0499 18.0499C17.5656 18.5341 17.3235 18.7762 17.0534 18.8881C16.6933 19.0373 16.2887 19.0373 15.9285 18.8881C15.6584 18.7762 15.4163 18.5341 14.9321 18.0499Z" fill="#354150"/>
</svg>
