<svg width="19" height="21" viewBox="0 0 19 21" fill="none" xmlns="http://www.w3.org/2000/svg">
<path fill-rule="evenodd" clip-rule="evenodd" d="M1.23666 1.23015C0 2.4603 0 4.4402 0 8.4V12.6C0 16.5598 0 18.5397 1.23666 19.7698C2.47332 21 4.4637 21 8.44444 21H10.5556C14.5363 21 16.5267 21 17.7633 19.7698C19 18.5397 19 16.5598 19 12.6V8.4C19 4.4402 19 2.4603 17.7633 1.23015C16.5267 0 14.5363 0 10.5556 0H8.44444C4.4637 0 2.47332 0 1.23666 1.23015ZM4.48611 6.3C4.48611 5.86508 4.84055 5.5125 5.27778 5.5125H13.7222C14.1594 5.5125 14.5139 5.86508 14.5139 6.3C14.5139 6.73492 14.1594 7.0875 13.7222 7.0875H5.27778C4.84055 7.0875 4.48611 6.73492 4.48611 6.3ZM4.48611 10.5C4.48611 10.0651 4.84055 9.7125 5.27778 9.7125H10.8194C11.2567 9.7125 11.6111 10.0651 11.6111 10.5C11.6111 10.9349 11.2567 11.2875 10.8194 11.2875H5.27778C4.84055 11.2875 4.48611 10.9349 4.48611 10.5ZM5.27778 13.9125C4.84055 13.9125 4.48611 14.2651 4.48611 14.7C4.48611 15.1349 4.84055 15.4875 5.27778 15.4875C5.715 15.4875 6.06944 15.1349 6.06944 14.7C6.06944 14.2651 5.715 13.9125 5.27778 13.9125Z" fill="#354150"/>
</svg>
