<svg width="30" height="30" viewBox="0 0 30 30" fill="none" xmlns="http://www.w3.org/2000/svg">
<path d="M20 14.9995C22.7614 14.9995 25 12.7609 25 9.99951C25 7.23809 22.7614 4.99951 20 4.99951C17.2386 4.99951 15 7.23809 15 9.99951C15 10.7994 15.1878 11.5553 15.5217 12.2257C15.6105 12.4039 15.64 12.6075 15.5886 12.7998L15.2908 13.9128C15.1615 14.396 15.6035 14.838 16.0867 14.7088L17.1997 14.411C17.392 14.3595 17.5956 14.389 17.7738 14.4778C18.4442 14.8117 19.2002 14.9995 20 14.9995Z" fill="#354150"/>
<path d="M11.0376 10.3157L11.6866 11.4786C12.2723 12.5281 12.0372 13.9048 11.1147 14.8273C11.1147 14.8273 11.1147 14.8273 11.1147 14.8273C11.1146 14.8274 9.99588 15.9464 12.0245 17.975C14.0525 20.003 15.1714 18.8856 15.1722 18.8848C15.1722 18.8848 15.1722 18.8848 15.1722 18.8848C16.0947 17.9623 17.4714 17.7272 18.5209 18.3129L19.6838 18.9619C21.2686 19.8463 21.4557 22.0688 20.0628 23.4617C19.2258 24.2987 18.2004 24.95 17.0669 24.993C15.1588 25.0653 11.9183 24.5824 8.6677 21.3318C5.41713 18.0812 4.93421 14.8407 5.00655 12.9326C5.04952 11.7991 5.7008 10.7737 6.53781 9.93674C7.93076 8.54379 10.1532 8.73095 11.0376 10.3157Z" fill="#354150"/>
</svg>
