<svg width="30" height="30" viewBox="0 0 30 30" fill="none" xmlns="http://www.w3.org/2000/svg">
<path d="M13.0376 8.31568L13.6866 9.47861C14.2723 10.5281 14.0372 11.9048 13.1147 12.8273C13.1147 12.8273 13.1147 12.8273 13.1147 12.8273C13.1146 12.8274 11.9959 13.9464 14.0245 15.975C16.0525 18.003 17.1714 16.8856 17.1722 16.8848C17.1722 16.8848 17.1722 16.8848 17.1722 16.8848C18.0947 15.9623 19.4714 15.7272 20.5209 16.3129L21.6838 16.9619C23.2686 17.8463 23.4557 20.0688 22.0628 21.4617C21.2258 22.2987 20.2004 22.95 19.0669 22.993C17.1588 23.0653 13.9183 22.5824 10.6677 19.3318C7.41713 16.0812 6.93421 12.8407 7.00655 10.9326C7.04952 9.79911 7.7008 8.77375 8.53781 7.93674C9.93076 6.54379 12.1532 6.73095 13.0376 8.31568Z" fill="#1C274C"/>
<path d="M16.2595 4.87934C16.3257 4.47045 16.7122 4.19308 17.1211 4.25928C17.1464 4.26412 17.2279 4.27934 17.2705 4.28884C17.3559 4.30785 17.4749 4.33711 17.6233 4.38033C17.9201 4.46677 18.3347 4.60918 18.8323 4.83731C19.8286 5.29407 21.1544 6.09307 22.5302 7.46887C23.906 8.84467 24.705 10.1705 25.1617 11.1668C25.3899 11.6644 25.5323 12.079 25.6187 12.3758C25.6619 12.5242 25.6912 12.6432 25.7102 12.7285C25.7197 12.7712 25.7267 12.8055 25.7315 12.8308L25.7373 12.862C25.8034 13.2708 25.5286 13.6734 25.1197 13.7396C24.712 13.8056 24.3279 13.5295 24.2601 13.1226C24.258 13.1116 24.2522 13.0823 24.2461 13.0546C24.2337 12.9992 24.2124 12.9114 24.1786 12.7952C24.1109 12.5629 23.9934 12.2176 23.7982 11.7919C23.4084 10.9416 22.7074 9.7674 21.4695 8.52953C20.2317 7.29167 19.0575 6.59068 18.2072 6.20085C17.7815 6.00569 17.4362 5.88816 17.2038 5.82048C17.0877 5.78665 16.9417 5.75314 16.8863 5.74081C16.4793 5.67299 16.1935 5.28707 16.2595 4.87934Z" fill="#1C274C"/>
<path fill-rule="evenodd" clip-rule="evenodd" d="M16.4857 8.32881C16.5995 7.93053 17.0146 7.69991 17.4129 7.81371L17.2069 8.53485C17.4129 7.81371 17.4129 7.81371 17.4129 7.81371L17.4144 7.81412L17.4159 7.81456L17.4192 7.81554L17.427 7.81785L17.4468 7.82401C17.4618 7.82884 17.4807 7.83512 17.5031 7.84308C17.548 7.85902 17.6074 7.88168 17.6802 7.91289C17.8259 7.97532 18.0249 8.07174 18.2695 8.21645C18.7589 8.50614 19.4271 8.98731 20.2121 9.77229C20.9971 10.5573 21.4782 11.2254 21.7679 11.7149C21.9126 11.9594 22.009 12.1585 22.0715 12.3042C22.1027 12.377 22.1254 12.4363 22.1413 12.4812C22.1493 12.5037 22.1555 12.5225 22.1604 12.5376L22.1665 12.5574L22.1688 12.5651L22.1698 12.5685L22.1702 12.57C22.1702 12.57 22.1707 12.5714 21.4495 12.7775L22.1707 12.5714C22.2845 12.9697 22.0538 13.3848 21.6556 13.4986C21.2607 13.6115 20.8492 13.3857 20.7313 12.9936L20.7276 12.9829C20.7223 12.9678 20.7113 12.9382 20.6928 12.895C20.6558 12.8087 20.5887 12.6675 20.4771 12.4789C20.2541 12.1021 19.8514 11.5329 19.1514 10.8329C18.4515 10.133 17.8822 9.73029 17.5055 9.50732C17.3169 9.3957 17.1757 9.3286 17.0893 9.2916C17.0461 9.27309 17.0165 9.26206 17.0015 9.25672L16.9907 9.25303C16.5987 9.13515 16.3729 8.7237 16.4857 8.32881Z" fill="#1C274C"/>
</svg>
