<svg width="27" height="26" viewBox="0 0 27 26" fill="none" xmlns="http://www.w3.org/2000/svg">
<path fill-rule="evenodd" clip-rule="evenodd" d="M16.3577 6.34813L16.402 6.36001C17.1349 6.55639 17.7157 6.71201 18.1725 6.87704C18.6398 7.04584 19.0209 7.23894 19.3348 7.53296C19.7919 7.9611 20.1118 8.51518 20.2541 9.12513C20.3517 9.544 20.3284 9.97056 20.241 10.4596C20.1555 10.9378 19.9998 11.5186 19.8034 12.2516L19.4465 13.5838C19.2501 14.3167 19.0945 14.8975 18.9295 15.3543C18.7606 15.8216 18.5675 16.2026 18.2735 16.5166C17.859 16.9591 17.3264 17.2731 16.7394 17.4217C16.5679 17.8149 16.3175 18.1709 16.0015 18.4668C15.6876 18.7608 15.3065 18.9539 14.8392 19.1228C14.3824 19.2878 13.8016 19.4434 13.0687 19.6398L13.0244 19.6516C12.2915 19.848 11.7106 20.0037 11.2325 20.0892C10.7434 20.1766 10.3168 20.1999 9.89795 20.1023C9.28801 19.96 8.73393 19.6401 8.30579 19.183C8.01177 18.8691 7.81867 18.488 7.64986 18.0208C7.48484 17.5639 7.32921 16.9831 7.13283 16.2502L6.77587 14.918C6.57948 14.1851 6.42385 13.6043 6.33835 13.1261C6.25089 12.637 6.22759 12.2105 6.32526 11.7916C6.46748 11.1816 6.78738 10.6276 7.2445 10.1994C7.55842 9.90541 7.93948 9.71231 8.40677 9.5435C8.8636 9.37848 9.44441 9.22285 10.1773 9.02647L10.1995 9.02054C10.3758 8.97329 10.5426 8.92867 10.7006 8.88694C10.9616 7.95419 11.1914 7.29482 11.6391 6.81676C12.0673 6.35964 12.6213 6.03975 13.2313 5.89753C13.6502 5.79986 14.0767 5.82316 14.5658 5.91061C15.0439 5.99611 15.6247 6.15174 16.3577 6.34813ZM10.3984 10.0025C9.66981 10.1978 9.14775 10.3391 8.74652 10.484C8.34024 10.6308 8.10169 10.7667 7.92809 10.9293C7.61532 11.2222 7.39645 11.6013 7.29914 12.0187C7.24513 12.2503 7.2467 12.5249 7.32273 12.9501C7.39987 13.3815 7.54409 13.9213 7.74773 14.6813L8.09282 15.9692C8.29647 16.7292 8.4415 17.2689 8.59038 17.681C8.73714 18.0873 8.87306 18.3258 9.03565 18.4994C9.32859 18.8122 9.7077 19.0311 10.125 19.1284C10.3567 19.1824 10.6312 19.1808 11.0564 19.1048C11.4878 19.0277 12.0277 18.8834 12.7877 18.6798C13.5477 18.4762 14.0873 18.3311 14.4995 18.1822C14.9057 18.0355 15.1443 17.8996 15.3179 17.737C15.4096 17.6511 15.4933 17.5578 15.5681 17.4583C15.4488 17.4415 15.3259 17.42 15.1988 17.3947C14.751 17.3057 14.213 17.1615 13.5489 16.9836L13.5107 16.9733C12.7777 16.7769 12.1969 16.6213 11.7401 16.4563C11.2728 16.2875 10.8918 16.0944 10.5778 15.8004C10.1207 15.3722 9.80081 14.8181 9.65859 14.2082C9.56093 13.7893 9.58422 13.3628 9.67168 12.8737C9.75718 12.3955 9.91281 11.8147 10.1092 11.0818L10.3984 10.0025ZM14.3898 6.895C13.9646 6.81896 13.69 6.81739 13.4584 6.8714C13.041 6.96871 12.6619 7.18759 12.369 7.50035C12.0782 7.81077 11.8993 8.29033 11.5882 9.42947C11.5376 9.61461 11.4841 9.81414 11.4262 10.0306L11.0811 11.3185C10.8774 12.0785 10.7332 12.6183 10.6561 13.0497C10.58 13.4749 10.5785 13.7495 10.6325 13.9811C10.7298 14.3985 10.9487 14.7776 11.2614 15.0705C11.435 15.2331 11.6736 15.369 12.0799 15.5158C12.492 15.6647 13.0316 15.8097 13.7916 16.0133C14.4753 16.1965 14.9819 16.332 15.3939 16.4139C15.804 16.4955 16.0824 16.5155 16.3105 16.4873C16.3601 16.4812 16.4078 16.4728 16.4543 16.4619C16.8716 16.3646 17.2507 16.1457 17.5437 15.833C17.7063 15.6594 17.8422 15.4208 17.9889 15.0145C18.1378 14.6024 18.2829 14.0628 18.4865 13.3028L18.8316 12.0149C19.0352 11.2548 19.1794 10.715 19.2566 10.2836C19.3326 9.85839 19.3342 9.58384 19.2802 9.3522C19.1829 8.93487 18.964 8.55577 18.6512 8.26283C18.4776 8.10023 18.2391 7.96432 17.8328 7.81755C17.4207 7.66867 16.881 7.52364 16.121 7.32C15.361 7.11635 14.8212 6.97214 14.3898 6.895ZM12.7967 11.5379C12.8681 11.2712 13.1423 11.1129 13.409 11.1844L16.6288 12.0471C16.8955 12.1186 17.0538 12.3927 16.9823 12.6595C16.9109 12.9262 16.6367 13.0845 16.37 13.013L13.1502 12.1503C12.8835 12.0788 12.7252 11.8046 12.7967 11.5379ZM12.2788 13.4697C12.3502 13.203 12.6244 13.0447 12.8911 13.1162L14.823 13.6338C15.0897 13.7053 15.248 13.9794 15.1765 14.2462C15.1051 14.5129 14.8309 14.6712 14.5642 14.5997L12.6323 14.0821C12.3656 14.0106 12.2073 13.7364 12.2788 13.4697Z" fill="#354150"/>
</svg>
