<svg width="17" height="17" viewBox="0 0 17 17" fill="none" xmlns="http://www.w3.org/2000/svg">
<path d="M0.166626 4.29142C0.166626 3.55597 0.166626 3.18825 0.224418 2.88195C0.478826 1.53355 1.53355 0.478826 2.88195 0.224418C3.18825 0.166626 3.55597 0.166626 4.29142 0.166626C4.61365 0.166626 4.77476 0.166626 4.9296 0.181105C5.59717 0.243531 6.23039 0.505822 6.74658 0.933722C6.8663 1.03297 6.98023 1.1469 7.20808 1.37475L7.66663 1.83329C8.34644 2.51311 8.68635 2.85302 9.09339 3.07948C9.31699 3.20388 9.55418 3.30213 9.80025 3.37227C10.2482 3.49996 10.7289 3.49996 11.6903 3.49996H12.0017C14.1953 3.49996 15.2922 3.49996 16.0051 4.14118C16.0707 4.20016 16.1331 4.26257 16.1921 4.32815C16.8333 5.04109 16.8333 6.13791 16.8333 8.33155V10.1666C16.8333 13.3093 16.8333 14.8807 15.857 15.857C14.8807 16.8333 13.3093 16.8333 10.1666 16.8333H6.83329C3.6906 16.8333 2.11925 16.8333 1.14294 15.857C0.166626 14.8807 0.166626 13.3093 0.166626 10.1666V4.29142Z" fill="#FAF603"/>
<path fill-rule="evenodd" clip-rule="evenodd" d="M8.70829 6.83329C8.70829 6.48811 8.98811 6.20829 9.33329 6.20829H13.5C13.8451 6.20829 14.125 6.48811 14.125 6.83329C14.125 7.17847 13.8451 7.45829 13.5 7.45829H9.33329C8.98811 7.45829 8.70829 7.17847 8.70829 6.83329Z" fill="#FAF603"/>
<path d="M12.6546 1.01741C12.5267 0.999959 12.3743 0.999959 12.0695 0.999959H8.49996L8.80818 1.31923C9.36318 1.89412 9.57656 2.10872 9.82302 2.25076C9.96609 2.33321 10.1179 2.39833 10.2753 2.44481C10.5465 2.5249 10.8439 2.52944 11.6288 2.52944L11.9074 2.52944C12.7428 2.52943 13.4162 2.52942 13.949 2.59881C14.0819 2.61611 14.21 2.63814 14.3333 2.66663C14.1786 1.80257 13.5035 1.13317 12.6546 1.01741Z" fill="#FAF603"/>
</svg>
