<svg width="15" height="17" viewBox="0 0 15 17" fill="none" xmlns="http://www.w3.org/2000/svg">
<path d="M0 3.8216C0 3.41789 0.287817 3.09062 0.642857 3.09062L2.86306 3.09022C3.30419 3.07751 3.69335 2.75857 3.84345 2.28672C3.8474 2.27432 3.85193 2.25902 3.86821 2.20349L3.96388 1.87709C4.02242 1.67696 4.07342 1.50261 4.14479 1.34677C4.42674 0.731092 4.9484 0.303558 5.55122 0.194099C5.70381 0.166393 5.8654 0.16651 6.05088 0.166644H8.94926C9.13474 0.16651 9.29633 0.166393 9.44892 0.194099C10.0517 0.303558 10.5734 0.731092 10.8554 1.34677C10.9267 1.50261 10.9777 1.67696 11.0363 1.87709L11.1319 2.20349C11.1482 2.25902 11.1527 2.27432 11.1567 2.28672C11.3068 2.75857 11.7732 3.0779 12.2143 3.09062H14.3571C14.7122 3.09062 15 3.41789 15 3.8216C15 4.22532 14.7122 4.55259 14.3571 4.55259H0.642857C0.287817 4.55259 0 4.22532 0 3.8216Z" fill="#354150" fill-opacity="0.5"/>
<path fill-rule="evenodd" clip-rule="evenodd" d="M7.163 16.8333H7.837C10.1559 16.8333 11.3154 16.8333 12.0693 16.095C12.8231 15.3567 12.9003 14.1457 13.0545 11.7237L13.2768 8.2338C13.3605 6.91963 13.4023 6.26255 13.0241 5.84617C12.6459 5.42978 12.0073 5.42978 10.73 5.42978H4.27004C2.99272 5.42978 2.35407 5.42978 1.97588 5.84617C1.59769 6.26255 1.63953 6.91963 1.72323 8.2338L1.94549 11.7237C2.09975 14.1457 2.17687 15.3567 2.93074 16.095C3.68461 16.8333 4.84407 16.8333 7.163 16.8333ZM10.2052 8.78795C10.2396 8.42641 9.98899 8.10401 9.64552 8.06786C9.30206 8.0317 8.99578 8.29548 8.96143 8.65702L8.54477 13.043C8.51042 13.4045 8.76101 13.7269 9.10448 13.7631C9.44794 13.7992 9.75422 13.5355 9.78856 13.1739L10.2052 8.78795ZM5.35448 8.06786C5.69794 8.0317 6.00422 8.29548 6.03856 8.65702L6.45523 13.043C6.48958 13.4045 6.23899 13.7269 5.89552 13.7631C5.55206 13.7992 5.24578 13.5355 5.21143 13.1739L4.79477 8.78795C4.76042 8.42641 5.01101 8.10401 5.35448 8.06786Z" fill="#354150" fill-opacity="0.5"/>
</svg>
